<svg xmlns="http://www.w3.org/2000/svg" xmlns:xlink="http://www.w3.org/1999/xlink" width="500" zoomAndPan="magnify" viewBox="0 0 375 374.999991" height="500" preserveAspectRatio="xMidYMid meet" version="1.0"><defs><clipPath id="id1"><path d="M 11.589844 1 L 363 1 L 363 374 L 11.589844 374 Z M 11.589844 1 " clip-rule="nonzero"/></clipPath></defs><g clip-path="url(#id1)"><path fill="rgb(41.958618%, 76.469421%, 20.388794%)" d="M 11.589844 62.828125 L 184.949219 1.109375 L 362.875 61.875 L 334.121094 291.21875 L 184.949219 373.761719 L 38.203125 292.289062 Z M 11.589844 62.828125 " fill-opacity="1" fill-rule="nonzero"/></g><path fill="rgb(0%, 56.469727%, 28.62854%)" d="M 362.875 61.875 L 184.949219 1.109375 L 184.949219 373.761719 L 334.121094 291.21875 Z M 362.875 61.875 " fill-opacity="1" fill-rule="nonzero"/><path fill="rgb(100%, 100%, 100%)" d="M 185.21875 44.664062 L 77.1875 285.023438 L 117.5 284.207031 L 139.269531 229.894531 L 235.890625 229.894531 L 259.546875 284.628906 L 297.984375 285.441406 Z M 185.484375 121.824219 L 222.039062 198.183594 L 153.613281 198.183594 L 185.589844 121.824219 Z M 185.484375 121.824219 " fill-opacity="1" fill-rule="nonzero"/><path fill="rgb(41.958618%, 76.469421%, 20.388794%)" d="M 68.054688 44.105469 L 185.5625 44.105469 L 185.5625 305.34375 L 68.054688 305.34375 L 68.054688 44.105469 " fill-opacity="1" fill-rule="nonzero"/><path fill="rgb(0%, 56.469727%, 28.62854%)" d="M 184.761719 44.105469 L 302.273438 44.105469 L 302.273438 305.34375 L 184.761719 305.34375 L 184.761719 44.105469 " fill-opacity="1" fill-rule="nonzero"/><path fill="rgb(100%, 100%, 100%)" d="M 124.59375 221.523438 L 90.949219 221.523438 L 166.097656 44.523438 L 201.3125 44.523438 L 278.035156 221.523438 L 242.820312 221.523438 L 222.695312 173.222656 L 163.738281 173.222656 L 175.058594 144.746094 L 210.746094 144.746094 L 182.761719 78.351562 Z M 124.59375 221.523438 " fill-opacity="1" fill-rule="nonzero"/><path fill="rgb(100%, 100%, 100%)" d="M 272.761719 280.363281 L 272.761719 248.351562 L 287.273438 248.351562 C 293.808594 248.351562 297.074219 251.199219 297.074219 256.925781 C 297.074219 260.796875 294.546875 263.988281 289.460938 266.519531 L 299.574219 280.363281 L 292.101562 280.363281 L 282.390625 266.40625 L 282.390625 263.703125 C 288.042969 262.734375 290.882812 260.542969 290.882812 257.09375 C 290.882812 254.730469 289.546875 253.5625 286.90625 253.5625 L 278.78125 253.5625 L 278.78125 280.332031 L 272.761719 280.332031 Z M 272.761719 280.363281 " fill-opacity="1" fill-rule="nonzero"/><path fill="rgb(100%, 100%, 100%)" d="M 241.144531 280.390625 L 235.066406 280.390625 L 248.644531 248.351562 L 255.007812 248.351562 L 268.867188 280.390625 L 262.507812 280.390625 L 258.871094 271.648438 L 248.246094 271.648438 L 250.292969 266.492188 L 256.683594 266.492188 L 251.65625 254.476562 Z M 241.144531 280.390625 " fill-opacity="1" fill-rule="nonzero"/><path fill="rgb(100%, 100%, 100%)" d="M 219.585938 248.351562 L 219.585938 275.234375 L 232.285156 275.234375 L 232.285156 280.390625 L 213.679688 280.390625 L 213.679688 248.351562 Z M 219.585938 248.351562 " fill-opacity="1" fill-rule="nonzero"/><path fill="rgb(100%, 100%, 100%)" d="M 179.480469 267.804688 L 179.480469 248.351562 L 185.390625 248.351562 L 185.390625 267.804688 C 185.390625 272.898438 188.003906 275.464844 193.199219 275.464844 C 198.425781 275.464844 201.011719 272.898438 201.011719 267.804688 L 201.011719 248.351562 L 206.917969 248.351562 L 206.917969 267.804688 C 206.917969 276.347656 202.347656 280.617188 193.171875 280.617188 C 184.054688 280.617188 179.480469 276.347656 179.480469 267.804688 Z M 179.480469 267.804688 " fill-opacity="1" fill-rule="nonzero"/><path fill="rgb(100%, 100%, 100%)" d="M 173.886719 278.910156 C 171.300781 280.046875 168.089844 280.617188 164.199219 280.617188 C 152.921875 280.617188 147.269531 275.066406 147.269531 263.929688 C 147.269531 253.394531 153.007812 248.125 164.484375 248.125 C 167.976562 248.125 171.101562 248.636719 173.855469 249.691406 L 173.855469 255.074219 C 171.101562 253.878906 168.121094 253.28125 164.910156 253.28125 C 157.242188 253.28125 153.40625 256.839844 153.40625 263.929688 C 153.40625 271.617188 157.011719 275.464844 164.257812 275.464844 C 165.335938 275.464844 166.558594 275.292969 167.921875 274.921875 L 167.921875 265.609375 L 173.828125 265.609375 L 173.828125 278.910156 Z M 173.886719 278.910156 " fill-opacity="1" fill-rule="nonzero"/><path fill="rgb(100%, 100%, 100%)" d="M 113.214844 280.390625 L 113.214844 248.351562 L 119.121094 248.351562 L 135.996094 271.703125 L 135.996094 248.351562 L 141.703125 248.351562 L 141.703125 280.390625 L 135.796875 280.390625 L 118.921875 256.554688 L 118.921875 280.390625 Z M 113.214844 280.390625 " fill-opacity="1" fill-rule="nonzero"/><path fill="rgb(100%, 100%, 100%)" d="M 81.601562 280.390625 L 75.523438 280.390625 L 89.097656 248.351562 L 95.460938 248.351562 L 109.324219 280.390625 L 102.960938 280.390625 L 99.324219 271.648438 L 88.671875 271.648438 L 90.71875 266.492188 L 97.164062 266.492188 L 92.109375 254.476562 Z M 81.601562 280.390625 " fill-opacity="1" fill-rule="nonzero"/><path fill="rgb(100%, 100%, 100%)" d="M 104.6875 312.300781 L 104.6875 292.390625 L 113.15625 292.390625 C 116.945312 292.390625 118.8125 293.929688 118.8125 297.035156 C 118.8125 299.292969 117.585938 300.90625 115.128906 301.882812 C 117.765625 302.371094 119.070312 303.882812 119.070312 306.398438 C 119.070312 310.324219 116.996094 312.273438 112.875 312.273438 L 104.6875 312.273438 Z M 112.695312 310.222656 C 115.078125 310.222656 116.253906 309.015625 116.253906 306.605469 C 116.253906 304.269531 114.667969 303.089844 111.496094 303.089844 L 110.394531 303.089844 L 110.394531 301.394531 C 114.179688 300.882812 116.074219 299.523438 116.074219 297.265625 C 116.074219 295.417969 115.027344 294.492188 112.902344 294.492188 L 107.246094 294.492188 L 107.246094 310.222656 Z M 122.449219 302.371094 C 122.449219 295.621094 125.773438 292.261719 132.402344 292.261719 C 138.953125 292.261719 142.203125 295.621094 142.203125 302.371094 C 142.203125 309.066406 138.929688 312.429688 132.402344 312.429688 C 125.773438 312.453125 122.449219 309.09375 122.449219 302.371094 Z M 132.402344 310.351562 C 137.136719 310.351562 139.515625 307.65625 139.515625 302.292969 C 139.515625 297.007812 137.136719 294.339844 132.402344 294.339844 C 127.566406 294.339844 125.132812 296.980469 125.132812 302.292969 C 125.160156 307.65625 127.566406 310.351562 132.402344 310.351562 Z M 145.558594 302.371094 C 145.558594 295.621094 148.882812 292.261719 155.511719 292.261719 C 162.0625 292.261719 165.3125 295.621094 165.3125 302.371094 C 165.3125 309.066406 162.039062 312.429688 155.511719 312.429688 C 148.882812 312.453125 145.558594 309.09375 145.558594 302.371094 Z M 155.539062 310.351562 C 160.273438 310.351562 162.652344 307.65625 162.652344 302.292969 C 162.652344 297.007812 160.273438 294.339844 155.539062 294.339844 C 150.699219 294.339844 148.269531 296.980469 148.269531 302.292969 C 148.269531 307.65625 150.675781 310.351562 155.539062 310.351562 Z M 182.765625 292.390625 L 182.765625 294.46875 L 176.523438 294.46875 L 176.523438 312.273438 L 173.964844 312.273438 L 173.964844 294.46875 L 167.71875 294.46875 L 167.71875 292.390625 Z M 207.746094 311.605469 C 206.03125 312.171875 204.1875 312.453125 202.191406 312.453125 C 195.257812 312.453125 191.777344 308.988281 191.777344 302.085938 C 191.777344 295.546875 195.257812 292.285156 202.191406 292.285156 C 204.1875 292.285156 206.03125 292.570312 207.746094 293.132812 L 207.746094 295.367188 C 206.03125 294.722656 204.265625 294.390625 202.472656 294.390625 C 197.046875 294.390625 194.359375 296.957031 194.359375 302.113281 C 194.359375 307.628906 197.074219 310.402344 202.472656 310.402344 C 204.289062 310.402344 206.03125 310.066406 207.746094 309.425781 Z M 212.632812 312.300781 L 209.972656 312.300781 L 218.390625 292.390625 L 221.230469 292.390625 L 229.703125 312.300781 L 226.863281 312.300781 L 224.304688 306.039062 L 217.726562 306.039062 L 218.441406 303.960938 L 223.433594 303.960938 L 219.722656 294.953125 Z M 232.414062 312.300781 L 232.414062 292.390625 L 235.664062 292.390625 L 242.960938 308.988281 L 250.097656 292.390625 L 253.222656 292.390625 L 253.222656 312.300781 L 250.945312 312.300781 L 250.945312 295.980469 L 243.878906 312.300781 L 241.859375 312.300781 L 234.691406 295.980469 L 234.691406 312.300781 Z M 257.957031 312.300781 L 257.957031 292.390625 L 266.015625 292.390625 C 270.0625 292.390625 272.109375 294.160156 272.109375 297.726562 C 272.109375 301.601562 269.34375 303.960938 263.789062 304.808594 L 263.253906 302.625 C 267.324219 302.035156 269.371094 300.421875 269.371094 297.828125 C 269.371094 295.621094 268.167969 294.519531 265.789062 294.519531 L 260.539062 294.519531 L 260.539062 312.300781 Z M 257.957031 312.300781 " fill-opacity="1" fill-rule="nonzero"/></svg>